GIL11_fast2_ik
nRows=3
nColumns=375

# SIMM Motion File Header:
name GIL11_fast2_ik
datacolumns 375
datarows 3
otherdata 1
range 0.30000000 0.31667000
endheader
time	pelvis_tx	pelvis_ty	pelvis_tz	pelvis_tilt	pelvis_list	pelvis_rotation	hip_flexion_r	hip_adduction_r	hip_rotation_r	knee_angle_r	ankle_angle_r	hip_flexion_l	hip_adduction_l	hip_rotation_l	knee_angle_l	ankle_angle_l	lumbar_extension	lumbar_bending	lumbar_rotation	subtalar_angle_r	mtp_angle_r	subtalar_angle_l	mtp_angle_l	asis_r_px	asis_r_py	asis_r_pz	asis_l_px	asis_l_py	asis_l_pz	midasis_px	midasis_py	midasis_pz	psis_r_px	psis_r_py	psis_r_pz	psis_l_px	psis_l_py	psis_l_pz	hip_r_px	hip_r_py	hip_r_pz	hip_l_px	hip_l_py	hip_l_pz	midhip_px	midhip_py	midhip_pz	epicondLat_r_px	epicondLat_r_py	epicondLat_r_pz	epicondMed_r_px	epicondMed_r_py	epicondMed_r_pz	thighwand_r_px	thighwand_r_py	thighwand_r_pz	upperleg1_r_px	upperleg1_r_py	upperleg1_r_pz	upperleg2_r_px	upperleg2_r_py	upperleg2_r_pz	malleolusLat_r_px	malleolusLat_r_py	malleolusLat_r_pz	malleolusMedv_r_px	malleolusMedv_r_py	malleolusMedv_r_pz	shankwand_r_px	shankwand_r_py	shankwand_r_pz	lowerleg1_r_px	lowerleg1_r_py	lowerleg1_r_pz	knee_r_px	knee_r_py	knee_r_pz	ankle_r_px	ankle_r_py	ankle_r_pz	toe_r_px	toe_r_py	toe_r_pz	epicondLat_l_px	epicondLat_l_py	epicondLat_l_pz	epicondMed_l_px	epicondMed_l_py	epicondMed_l_pz	thighwand_l_px	thighwand_l_py	thighwand_l_pz	upperleg1_l_px	upperleg1_l_py	upperleg1_l_pz	upperleg2_l_px	upperleg2_l_py	upperleg2_l_pz	malleolusLat_l_px	malleolusLat_l_py	malleolusLat_l_pz	malleolusMedv_l_px	malleolusMedv_l_py	malleolusMedv_l_pz	shankwand_l_px	shankwand_l_py	shankwand_l_pz	lowerleg1_l_px	lowerleg1_l_py	lowerleg1_l_pz	knee_l_px	knee_l_py	knee_l_pz	ankle_l_px	ankle_l_py	ankle_l_pz	toe_l_px	toe_l_py	toe_l_pz	subclavicle_r_px	subclavicle_r_py	subclavicle_r_pz	subclavicle_l_px	subclavicle_l_py	subclavicle_l_pz	neck_px	neck_py	neck_pz	sternalnotch_px	sternalnotch_py	sternalnotch_pz	xyphoidprocess_px	xyphoidprocess_py	xyphoidprocess_pz	midhip_tx	midhip_ty	midhip_tz	hip_r_tx	hip_r_ty	hip_r_tz	hip_l_tx	hip_l_ty	hip_l_tz	knee_r_tx	knee_r_ty	knee_r_tz	knee_l_tx	knee_l_ty	knee_l_tz	ankle_r_tx	ankle_r_ty	ankle_r_tz	ankle_l_tx	ankle_l_ty	ankle_l_tz	midasis_tx	midasis_ty	midasis_tz	asis_r_tx	asis_r_ty	asis_r_tz	asis_l_tx	asis_l_ty	asis_l_tz	psis_r_tx	psis_r_ty	psis_r_tz	psis_l_tx	psis_l_ty	psis_l_tz	epicondLat_r_tx	epicondLat_r_ty	epicondLat_r_tz	epicondLat_l_tx	epicondLat_l_ty	epicondLat_l_tz	epicondMed_r_tx	epicondMed_r_ty	epicondMed_r_tz	epicondMed_l_tx	epicondMed_l_ty	epicondMed_l_tz	malleolusLat_r_tx	malleolusLat_r_ty	malleolusLat_r_tz	malleolusLat_l_tx	malleolusLat_l_ty	malleolusLat_l_tz	malleolusMedv_r_tx	malleolusMedv_r_ty	malleolusMedv_r_tz	malleolusMedv_l_tx	malleolusMedv_l_ty	malleolusMedv_l_tz	neck_tx	neck_ty	neck_tz	subclavicle_r_tx	subclavicle_r_ty	subclavicle_r_tz	subclavicle_l_tx	subclavicle_l_ty	subclavicle_l_tz	sternalnotch_tx	sternalnotch_ty	sternalnotch_tz	xyphoidprocess_tx	xyphoidprocess_ty	xyphoidprocess_tz	thighwand_r_tx	thighwand_r_ty	thighwand_r_tz	thighwand_l_tx	thighwand_l_ty	thighwand_l_tz	upperleg1_r_tx	upperleg1_r_ty	upperleg1_r_tz	upperleg1_l_tx	upperleg1_l_ty	upperleg1_l_tz	upperleg2_r_tx	upperleg2_r_ty	upperleg2_r_tz	upperleg2_l_tx	upperleg2_l_ty	upperleg2_l_tz	shankwand_r_tx	shankwand_r_ty	shankwand_r_tz	shankwand_l_tx	shankwand_l_ty	shankwand_l_tz	lowerleg1_r_tx	lowerleg1_r_ty	lowerleg1_r_tz	lowerleg1_l_tx	lowerleg1_l_ty	lowerleg1_l_tz	toe_r_tx	toe_r_ty	toe_r_tz	toe_l_tx	toe_l_ty	toe_l_tz	ground_force_vx	ground_force_vy	ground_force_vz	ground_force_px	ground_force_py	ground_force_pz	ground_force_vx	ground_force_vy	ground_force_vz	ground_force_px	ground_force_py	ground_force_pz	ground_torque_x	ground_torque_y	ground_torque_z	ground_torque_x	ground_torque_y	ground_torque_z	ground_marker_px	ground_marker_py	ground_marker_pz	ground_marker_px	ground_marker_py	ground_marker_pz	ground_marker_px	ground_marker_py	ground_marker_pz	ground_marker_px	ground_marker_py	ground_marker_pz	ground_marker_px	ground_marker_py	ground_marker_pz	ground_marker_px	ground_marker_py	ground_marker_pz	ground_marker_px	ground_marker_py	ground_marker_pz	ground_marker_px	ground_marker_py	ground_marker_pz	ground_marker_px	ground_marker_py	ground_marker_pz	ground_marker_px	ground_marker_py	ground_marker_pz	ground_marker_px	ground_marker_py	ground_marker_pz	ground_marker_px	ground_marker_py	ground_marker_pz	ground_marker_px	ground_marker_py	ground_marker_pz	ground_marker_px	ground_marker_py	ground_marker_pz	ground_marker_px	ground_marker_py	ground_marker_pz	ground_marker_px	ground_marker_py	ground_marker_pz	ground_marker_px	ground_marker_py	ground_marker_pz	ground_marker_px	ground_marker_py	ground_marker_pz	ground_marker_px	ground_marker_py	ground_marker_pz	ground_marker_px	ground_marker_py	ground_marker_pz	ground_marker_px	ground_marker_py	ground_marker_pz	ground_marker_px	ground_marker_py	ground_marker_pz	ground_marker_px	ground_marker_py	ground_marker_pz	ground_marker_px	ground_marker_py	ground_marker_pz	ground_marker_px	ground_marker_py	ground_marker_pz	ground_marker_px	ground_marker_py	ground_marker_pz	ground_marker_px	ground_marker_py	ground_marker_pz	ground_marker_px	ground_marker_py	ground_marker_pz	ground_marker_px	ground_marker_py	ground_marker_pz	ground_marker_px	ground_marker_py	ground_marker_pz	ground_marker_px	ground_marker_py	ground_marker_pz	ground_marker_px	ground_marker_py	ground_marker_pz	ground_marker_px	ground_marker_py	ground_marker_pz	ground_marker_px	ground_marker_py	ground_marker_pz	ground_marker_px	ground_marker_py	ground_marker_pz	ground_marker_px	ground_marker_py	ground_marker_pz	ground_marker_px	ground_marker_py	ground_marker_pz
      0.30000000	      1.58342186	      0.87071674	     -0.23794042	     -5.50605562	      0.01628567	     -0.85202931	     -0.96799901	      2.81320354	     11.64485910	     -6.43217404	      8.46405917	     27.67975087	     -4.13864339	      5.31498407	    -46.62063693	      4.78578509	     -4.08518331	     -3.46000525	      5.52914467	      0.00000000	      0.00000000	      0.00000000	      0.00000000	      1.62936688	      0.85609547	     -0.12643346	      1.63134024	      0.85931923	     -0.36164007	      1.59622571	      0.86948245	     -0.23774912	      1.44408349	      0.94444311	     -0.21146773	      1.44106793	      0.94147987	     -0.26601144	      1.51179661	      0.81657850	     -0.16220390	      1.51407219	      0.81640296	     -0.31564359	      1.51293440	      0.81649073	     -0.23892374	      1.49964793	      0.42100311	     -0.12559660	      1.47879179	      0.42842474	     -0.24055336	      1.65632485	      0.54491951	     -0.22077258	      1.60646118	      0.60060480	     -0.15486845	      1.58371017	      0.51557547	     -0.15444399	      1.37099247	      0.06513697	     -0.14136331	      1.39213351	      0.06556236	     -0.21373146	      1.38901140	      0.13965055	     -0.07247289	      1.39086216	      0.14930888	     -0.11566638	      1.46603922	      0.44166840	     -0.18030102	      1.38372727	      0.07797827	     -0.19087519	      1.48216035	      0.02224491	     -0.14103560	      1.69479886	      0.46850925	     -0.40827815	      1.68145001	      0.46440880	     -0.28516656	      1.68181467	      0.61008565	     -0.47966610	      1.60284603	      0.62923243	     -0.42435507	      1.64113370	      0.55015090	     -0.41648458	      1.49064372	      0.12314114	     -0.43737648	      1.50816787	      0.11606510	     -0.36927674	      1.63737752	      0.18151620	     -0.37523454	      1.59974315	      0.19895027	     -0.38322938	      1.66149560	      0.46293738	     -0.34049578	      1.50791586	      0.12603047	     -0.38593349	      1.59184984	      0.05496711	     -0.43067754	      1.61988829	      1.32323493	     -0.21390981	      1.61227309	      1.31425123	     -0.31915498	      1.48938801	      1.36829429	     -0.25710538	      1.61294154	      1.31520979	     -0.26546532	      1.65940374	      1.24995868	     -0.26711265	      1.51991000	      0.82420400	     -0.23891200	      1.50358300	      0.80833900	     -0.17216100	      1.50104600	      0.80928900	     -0.32426400	      1.46369800	      0.43940300	     -0.18895300	      1.65509300	      0.43785000	     -0.36126000	      1.38063600	      0.07282000	     -0.20656300	      1.50642400	      0.11290900	     -0.35417300	      1.59399600	      0.88118300	     -0.24624800	      1.59210300	      0.88041000	     -0.12938000	      1.59588900	      0.88195700	     -0.36311700	      1.40371500	      0.94483000	     -0.21565700	      1.40093900	      0.93719100	     -0.26946200	      1.47423000	      0.43567400	     -0.13203900	      1.65944200	      0.44536500	     -0.41860700	      1.45723600	      0.44414500	     -0.24629100	      1.69183600	      0.45014400	     -0.29869900	      1.36602300	      0.07434400	     -0.16935800	      1.49031100	      0.11949600	     -0.39018700	      1.39550600	      0.07908800	     -0.23850600	      1.52113500	      0.11848900	     -0.33018300	      1.49199900	      1.38117600	     -0.25767200	      1.62029900	      1.32455800	     -0.21472000	      1.61276700	      1.31471400	     -0.31941200	      1.61328600	      1.31601400	     -0.26600800	      1.65392200	      1.24744900	     -0.26628200	      1.63278900	      0.55512100	     -0.21744700	      1.64627900	      0.58215200	     -0.49745700	      1.58392700	      0.61044500	     -0.14878500	      1.57864700	      0.60178700	     -0.42939800	      1.56159100	      0.52590400	     -0.15410600	      1.62260800	      0.52449500	     -0.42446900	      1.37310900	      0.14702500	     -0.09508900	      1.64257800	      0.19017600	     -0.35955900	      1.37910500	      0.15665000	     -0.13714400	      1.60308600	      0.20510400	     -0.36257300	      1.47418500	      0.03940200	     -0.17078400	      1.59068200	      0.06084800	     -0.38707800	     13.52482270	    448.29204588	    -36.17006856	      1.49048157	      0.00000000	     -0.17604832	      0.00000000	      0.00000000	      0.00000000	      1.95042920	      0.00000000	     -0.32589148	      0.00000000	      1.85895386	      0.00000000	      0.00000000	      0.00000000	      0.00000000	      1.51990962	      0.82420385	     -0.23891164	      1.50358284	      0.80833870	     -0.17216064	      1.50104618	      0.80928946	     -0.32426414	      1.46369791	      0.43940258	     -0.18895270	      1.65509319	      0.43784994	     -0.36126024	      1.38063598	      0.07282001	     -0.20656252	      1.50642419	      0.11290909	     -0.35417336	      1.59399629	      0.88118333	     -0.24624836	      1.59210324	      0.88040972	     -0.12937997	      1.59588921	      0.88195693	     -0.36311677	      1.40371490	      0.94483018	     -0.21565738	      1.40093887	      0.93719083	     -0.26946193	      1.47422957	      0.43567362	     -0.13203892	      1.65944242	      0.44536549	     -0.41860658	      1.45723581	      0.44414485	     -0.24629077	      1.69183636	      0.45014441	     -0.29869872	      1.36602342	      0.07434378	     -0.16935833	      1.49031067	      0.11949601	     -0.39018679	      1.39550614	      0.07908842	     -0.23850614	      1.52113473	      0.11848916	     -0.33018276	      1.49199927	      1.38117576	     -0.25767177	      1.62029874	      1.32455754	     -0.21472016	      1.61276722	      1.31471443	     -0.31941193	      1.61328554	      1.31601429	     -0.26600847	      1.65392184	      1.24744892	     -0.26628181	      1.63278925	      0.55512071	     -0.21744716	      1.64627945	      0.58215153	     -0.49745655	      1.58392715	      0.61044502	     -0.14878467	      1.57864702	      0.60178745	     -0.42939791	      1.56159067	      0.52590430	     -0.15410607	      1.62260759	      0.52449471	     -0.42446947	      1.37310874	      0.14702475	     -0.09508901	      1.64257824	      0.19017649	     -0.35955942	      1.37910521	      0.15665042	     -0.13714431	      1.60308635	      0.20510364	     -0.36257303	      1.47418451	      0.03940202	     -0.17078419	      1.59068239	      0.06084816	     -0.38707763
      0.30833000	      1.59597446	      0.86951377	     -0.23872274	     -5.67005741	      0.36779560	     -0.85205690	     -2.01915597	      2.45741570	     11.43626415	     -5.81518119	      8.46026248	     28.84999337	     -3.65415952	      4.80980297	    -44.52484327	      5.14085203	     -3.99164554	     -3.74598790	      5.71194105	      0.00000000	      0.00000000	      0.00000000	      0.00000000	      1.64180981	      0.85408050	     -0.12728010	      1.64393507	      0.85873445	     -0.36246143	      1.60877461	      0.86824167	     -0.23853144	      1.45683152	      0.94347594	     -0.21188242	      1.45384058	      0.94085438	     -0.26644498	      1.52414871	      0.81511955	     -0.16336044	      1.52651686	      0.81587423	     -0.31679697	      1.52533278	      0.81549689	     -0.24007871	      1.50338225	      0.41990588	     -0.12672049	      1.48308171	      0.42774372	     -0.24174906	      1.66300750	      0.54040392	     -0.22138517	      1.61412730	      0.59716448	     -0.15566183	      1.58955399	      0.51264350	     -0.15529896	      1.37102249	      0.06579493	     -0.14362959	      1.39246939	      0.06611054	     -0.21590825	      1.38956478	      0.13999215	     -0.07453690	      1.39170139	      0.14970190	     -0.11770565	      1.47033235	      0.44133118	     -0.18152459	      1.38410355	      0.07857922	     -0.19306590	      1.48171065	      0.02168546	     -0.14291395	      1.71309140	      0.47078832	     -0.40833374	      1.70033214	      0.46711853	     -0.28514607	      1.69726209	      0.61171766	     -0.48042436	      1.61819281	      0.62974176	     -0.42488035	      1.65793092	      0.55140568	     -0.41674906	      1.52759700	      0.11597090	     -0.43440674	      1.54550700	      0.11040096	     -0.36626755	      1.67097078	      0.18271919	     -0.37285433	      1.63244229	      0.19802037	     -0.38095611	      1.67979079	      0.46530324	     -0.34037651	      1.54470766	      0.12020451	     -0.38300286	      1.63275955	      0.05401415	     -0.42730461	      1.63331626	      1.32205704	     -0.21401741	      1.62533279	      1.31326345	     -0.31925135	      1.50273844	      1.36738365	     -0.25669595	      1.62618372	      1.31412983	     -0.26556270	      1.67254268	      1.24881261	     -0.26747732	      1.53215600	      0.82348900	     -0.23922100	      1.51566200	      0.80683800	     -0.17306500	      1.51326600	      0.80861200	     -0.32516300	      1.46801600	      0.43968600	     -0.19002700	      1.67404500	      0.43994700	     -0.35982300	      1.38125100	      0.07380600	     -0.20733900	      1.54322600	      0.10649700	     -0.35420900	      1.60634100	      0.87983200	     -0.24668000	      1.60433900	      0.87843700	     -0.12976700	      1.60834200	      0.88122800	     -0.36359400	      1.41594400	      0.94407700	     -0.21577400	      1.41318600	      0.93640900	     -0.26959500	      1.47824600	      0.43572800	     -0.13307400	      1.67802300	      0.44708000	     -0.41724500	      1.46138900	      0.44485900	     -0.24818200	      1.70863700	      0.45240300	     -0.29798900	      1.36654600	      0.07553500	     -0.17018000	      1.52687200	      0.11230700	     -0.39024800	      1.39647200	      0.07933700	     -0.23939800	      1.55779400	      0.11231400	     -0.33054600	      1.50503000	      1.38028800	     -0.25729700	      1.63379400	      1.32308400	     -0.21438400	      1.62614000	      1.31414400	     -0.31943500	      1.62665500	      1.31478500	     -0.26595000	      1.66732200	      1.24640500	     -0.26679700	      1.63980300	      0.55216300	     -0.21785200	      1.66210300	      0.58260100	     -0.49705600	      1.59131400	      0.60851700	     -0.15057300	      1.59392500	      0.60212000	     -0.42947400	      1.56670900	      0.52469000	     -0.15534100	      1.63877500	      0.52552800	     -0.42418700	      1.37417100	      0.14839300	     -0.09592600	      1.67490000	      0.19146100	     -0.35894700	      1.38060100	      0.15734600	     -0.13854100	      1.63429100	      0.20344100	     -0.36207000	      1.47438200	      0.03946400	     -0.17108400	      1.63035800	      0.05990400	     -0.38881200	     18.62758296	    459.84205289	    -34.73240226	      1.49140002	      0.00000000	     -0.17682201	      0.00000000	      0.00000000	      0.00000000	      1.95676636	      0.00000000	     -0.32638654	      0.00000000	      2.01494067	      0.00000000	      0.00000000	      0.00000000	      0.00000000	      1.53215599	      0.82348931	     -0.23922098	      1.51566243	      0.80683845	     -0.17306475	      1.51326561	      0.80861175	     -0.32516313	      1.46801579	      0.43968642	     -0.19002746	      1.67404485	      0.43994680	     -0.35982311	      1.38125062	      0.07380635	     -0.20733856	      1.54322553	      0.10649750	     -0.35420892	      1.60634089	      0.87983233	     -0.24668030	      1.60433948	      0.87843657	     -0.12976703	      1.60834217	      0.88122809	     -0.36359358	      1.41594362	      0.94407719	     -0.21577373	      1.41318619	      0.93640929	     -0.26959455	      1.47824585	      0.43572754	     -0.13307424	      1.67802250	      0.44708005	     -0.41724521	      1.46138895	      0.44485939	     -0.24818245	      1.70863736	      0.45240349	     -0.29798928	      1.36654592	      0.07553533	     -0.17017971	      1.52687156	      0.11230671	     -0.39024779	      1.39647150	      0.07933727	     -0.23939782	      1.55779409	      0.11231413	     -0.33054578	      1.50502980	      1.38028812	     -0.25729725	      1.63379359	      1.32308400	     -0.21438403	      1.62613952	      1.31414437	     -0.31943497	      1.62665546	      1.31478512	     -0.26594964	      1.66732156	      1.24640536	     -0.26679701	      1.63980281	      0.55216259	     -0.21785174	      1.66210294	      0.58260077	     -0.49705648	      1.59131396	      0.60851723	     -0.15057281	      1.59392536	      0.60212046	     -0.42947391	      1.56670940	      0.52468991	     -0.15534143	      1.63877547	      0.52552837	     -0.42418712	      1.37417114	      0.14839345	     -0.09592605	      1.67490017	      0.19146077	     -0.35894734	      1.38060117	      0.15734644	     -0.13854088	      1.63429093	      0.20344149	     -0.36206973	      1.47438180	      0.03946406	     -0.17108449	      1.63035846	      0.05990428	     -0.38881227
      0.31667000	      1.60872532	      0.86810873	     -0.23935351	     -5.81824997	      0.69437850	     -0.81769870	     -3.07057538	      2.13837050	     11.12921182	     -5.25109776	      8.41714180	     29.90821564	     -3.19702949	      4.40177025	    -42.24450222	      5.35499164	     -3.91503405	     -4.04814497	      5.80770114	      0.00000000	      0.00000000	      0.00000000	      0.00000000	      1.65452277	      0.85191875	     -0.12800269	      1.65665563	      0.85791503	     -0.36315356	      1.62152215	      0.86680252	     -0.23916993	      1.46977424	      0.94227470	     -0.21208507	      1.46677552	      0.93997363	     -0.26666165	      1.53676083	      0.81346902	     -0.16430179	      1.53912804	      0.81509697	     -0.31773156	      1.53794444	      0.81428299	     -0.24101668	      1.50743302	      0.41879793	     -0.12766590	      1.48780113	      0.42703020	     -0.24278294	      1.66999328	      0.53584361	     -0.22166519	      1.62204810	      0.59365154	     -0.15616637	      1.59568089	      0.50967255	     -0.15589141	      1.37116385	      0.06654640	     -0.14575930	      1.39297906	      0.06671477	     -0.21792814	      1.39021529	      0.14042599	     -0.07646505	      1.39268321	      0.15017105	     -0.11960817	      1.47501497	      0.44095737	     -0.18260119	      1.38464278	      0.07924756	     -0.19511008	      1.48129340	      0.02108383	     -0.14456405	      1.73097415	      0.47264307	     -0.40825073	      1.71866484	      0.46935185	     -0.28500659	      1.71263825	      0.61295441	     -0.48095029	      1.63346329	      0.62996076	     -0.42523615	      1.67448967	      0.55231701	     -0.41686588	      1.56512023	      0.10931913	     -0.43168457	      1.58326020	      0.10525196	     -0.36349997	      1.70450726	      0.18439507	     -0.37057046	      1.66519273	      0.19746742	     -0.37879796	      1.69755277	      0.46726094	     -0.34015860	      1.58192905	      0.11487357	     -0.38030687	      1.67378560	      0.05372464	     -0.42412614	      1.64686992	      1.32068072	     -0.21418413	      1.63860585	      1.31198235	     -0.31940432	      1.51624801	      1.36622578	     -0.25649360	      1.63959483	      1.31280470	     -0.26571734	      1.68585631	      1.24742361	     -0.26780202	      1.54476300	      0.82268000	     -0.23905500	      1.52793600	      0.80509200	     -0.17391100	      1.52559800	      0.80763200	     -0.32599900	      1.47271200	      0.43995500	     -0.19108600	      1.69240600	      0.44168600	     -0.35843500	      1.38203400	      0.07486800	     -0.20806700	      1.58045300	      0.10056100	     -0.35440500	      1.61881600	      0.87823600	     -0.24712800	      1.61676500	      0.87625700	     -0.13005600	      1.62086600	      0.88021500	     -0.36420100	      1.42823700	      0.94304500	     -0.21592100	      1.42542800	      0.93534900	     -0.26982700	      1.48257900	      0.43578100	     -0.13408400	      1.69609700	      0.44846300	     -0.41591900	      1.46496100	      0.44579700	     -0.25085700	      1.72489900	      0.45471900	     -0.29692600	      1.36721800	      0.07682200	     -0.17096300	      1.56393500	      0.10555500	     -0.39049100	      1.39813800	      0.07981300	     -0.23987300	      1.59532500	      0.10663800	     -0.33104800	      1.51843000	      1.37921100	     -0.25715300	      1.64739200	      1.32120600	     -0.21444700	      1.63954800	      1.31267400	     -0.31960700	      1.64006600	      1.31339600	     -0.26589900	      1.68054900	      1.24458900	     -0.26723300	      1.64702000	      0.54915300	     -0.21804500	      1.67777000	      0.58275100	     -0.49655100	      1.59802500	      0.60569800	     -0.15187100	      1.60949000	      0.60232500	     -0.42969600	      1.57107000	      0.52322400	     -0.15652900	      1.65464500	      0.52672000	     -0.42382600	      1.37539100	      0.14984200	     -0.09678500	      1.70703200	      0.19318900	     -0.35833800	      1.38261700	      0.15862000	     -0.13949100	      1.66634500	      0.20232600	     -0.36120700	      1.47456600	      0.03953000	     -0.17131700	      1.67021500	      0.05947200	     -0.39039700	     23.56968043	    473.55341248	    -33.24014616	      1.49240942	      0.00000000	     -0.17761417	      0.00000000	      0.00000000	      0.00000000	      1.96266699	      0.00000000	     -0.32693396	      0.00000000	      2.18229126	      0.00000000	      0.00000000	      0.00000000	      0.00000000	      1.54476285	      0.82268006	     -0.23905462	      1.52793574	      0.80509245	     -0.17391087	      1.52559841	      0.80763239	     -0.32599929	      1.47271156	      0.43995464	     -0.19108562	      1.69240618	      0.44168556	     -0.35843503	      1.38203359	      0.07486799	     -0.20806652	      1.58045328	      0.10056075	     -0.35440451	      1.61881554	      0.87823594	     -0.24712840	      1.61676538	      0.87625724	     -0.13005562	      1.62086570	      0.88021457	     -0.36420119	      1.42823720	      0.94304508	     -0.21592140	      1.42542768	      0.93534946	     -0.26982665	      1.48257899	      0.43578112	     -0.13408372	      1.69609749	      0.44846332	     -0.41591921	      1.46496081	      0.44579697	     -0.25085676	      1.72489905	      0.45471933	     -0.29692581	      1.36721778	      0.07682209	     -0.17096299	      1.56393504	      0.10555547	     -0.39049050	      1.39813828	      0.07981291	     -0.23987338	      1.59532547	      0.10663810	     -0.33104792	      1.51843047	      1.37921059	     -0.25715268	      1.64739168	      1.32120621	     -0.21444713	      1.63954782	      1.31267405	     -0.31960717	      1.64006603	      1.31339586	     -0.26589856	      1.68054855	      1.24458933	     -0.26723263	      1.64701974	      0.54915327	     -0.21804506	      1.67777014	      0.58275121	     -0.49655059	      1.59802485	      0.60569757	     -0.15187073	      1.60948968	      0.60232455	     -0.42969611	      1.57106996	      0.52322441	     -0.15652926	      1.65464509	      0.52671981	     -0.42382595	      1.37539089	      0.14984180	     -0.09678456	      1.70703161	      0.19318879	     -0.35833773	      1.38261676	      0.15861998	     -0.13949110	      1.66634488	      0.20232606	     -0.36120692	      1.47456574	      0.03953016	     -0.17131674	      1.67021513	      0.05947249	     -0.39039746
